<svg xmlns="http://www.w3.org/2000/svg" viewBox="0 0 200 200" fill="none" role="img" aria-label="Pyrus">
  <rect x="0" y="0" width="200" height="200" fill="#050914"/>
  <defs>
    <linearGradient id="pyrus-grad" x1="6" y1="100" x2="194" y2="100" gradientUnits="userSpaceOnUse">
      <stop offset="0" stop-color="#3DB8FF" stop-opacity="1"/>
      <stop offset="0.32" stop-color="#2BA8FF" stop-opacity="1"/>
      <stop offset="0.44" stop-color="#3A2A8C" stop-opacity="0.45"/>
      <stop offset="0.5" stop-color="#1A0F33" stop-opacity="0.18"/>
      <stop offset="0.56" stop-color="#7A1E26" stop-opacity="0.45"/>
      <stop offset="0.68" stop-color="#FF3D2A" stop-opacity="1"/>
      <stop offset="1" stop-color="#FF4D3D" stop-opacity="1"/>
    </linearGradient>
    <filter id="pyrus-glow" x="-17%" y="-17%" width="135%" height="135%" color-interpolation-filters="sRGB">
      <feGaussianBlur in="SourceGraphic" stdDeviation="0.5" result="halo"/>
      <feGaussianBlur in="SourceGraphic" stdDeviation="2" result="bloom"/>
      <feMerge>
        <feMergeNode in="bloom"/>
        <feMergeNode in="halo"/>
        <feMergeNode in="SourceGraphic"/>
      </feMerge>
    </filter>
    <style>
      .pyrus-ring {
        transform-box: view-box;
        transform-origin: 50% 50%;
        animation: pyrus-ring-spin var(--pyrus-ring-duration, 30s) linear infinite;
        animation-direction: var(--pyrus-ring-direction, normal);
      }
      @keyframes pyrus-ring-spin {
        to { transform: rotate(360deg); }
      }
      @media (prefers-reduced-motion: reduce) {
        .pyrus-ring { animation: none; }
      }
    </style>
  </defs>
  <g filter="url(#pyrus-glow)">
    <g id="ring-07-particles" class="pyrus-ring" style="--pyrus-ring-duration: 18s; --pyrus-ring-direction: normal;" fill="url(#pyrus-grad)">
      <circle cx="194.000" cy="100.000" r="1"/>
      <circle cx="193.642" cy="108.193" r="1"/>
      <circle cx="192.572" cy="116.323" r="1"/>
      <circle cx="190.797" cy="124.329" r="1"/>
      <circle cx="188.331" cy="132.150" r="1"/>
      <circle cx="185.193" cy="139.726" r="1"/>
      <circle cx="181.406" cy="147.000" r="1"/>
      <circle cx="177.000" cy="153.916" r="1"/>
      <circle cx="172.008" cy="160.422" r="1"/>
      <circle cx="166.468" cy="166.468" r="1"/>
      <circle cx="160.422" cy="172.008" r="1"/>
      <circle cx="153.916" cy="177.000" r="1"/>
      <circle cx="147.000" cy="181.406" r="1"/>
      <circle cx="139.726" cy="185.193" r="1"/>
      <circle cx="132.150" cy="188.331" r="1"/>
      <circle cx="124.329" cy="190.797" r="1"/>
      <circle cx="116.323" cy="192.572" r="1"/>
      <circle cx="108.193" cy="193.642" r="1"/>
      <circle cx="100.000" cy="194.000" r="1"/>
      <circle cx="91.807" cy="193.642" r="1"/>
      <circle cx="83.677" cy="192.572" r="1"/>
      <circle cx="75.671" cy="190.797" r="1"/>
      <circle cx="67.850" cy="188.331" r="1"/>
      <circle cx="60.274" cy="185.193" r="1"/>
      <circle cx="53.000" cy="181.406" r="1"/>
      <circle cx="46.084" cy="177.000" r="1"/>
      <circle cx="39.578" cy="172.008" r="1"/>
      <circle cx="33.532" cy="166.468" r="1"/>
      <circle cx="27.992" cy="160.422" r="1"/>
      <circle cx="23.000" cy="153.916" r="1"/>
      <circle cx="18.594" cy="147.000" r="1"/>
      <circle cx="14.807" cy="139.726" r="1"/>
      <circle cx="11.669" cy="132.150" r="1"/>
      <circle cx="9.203" cy="124.329" r="1"/>
      <circle cx="7.428" cy="116.323" r="1"/>
      <circle cx="6.358" cy="108.193" r="1"/>
      <circle cx="6.000" cy="100.000" r="1"/>
      <circle cx="6.358" cy="91.807" r="1"/>
      <circle cx="7.428" cy="83.677" r="1"/>
      <circle cx="9.203" cy="75.671" r="1"/>
      <circle cx="11.669" cy="67.850" r="1"/>
      <circle cx="14.807" cy="60.274" r="1"/>
      <circle cx="18.594" cy="53.000" r="1"/>
      <circle cx="23.000" cy="46.084" r="1"/>
      <circle cx="27.992" cy="39.578" r="1"/>
      <circle cx="33.532" cy="33.532" r="1"/>
      <circle cx="39.578" cy="27.992" r="1"/>
      <circle cx="46.084" cy="23.000" r="1"/>
      <circle cx="53.000" cy="18.594" r="1"/>
      <circle cx="60.274" cy="14.807" r="1"/>
      <circle cx="67.850" cy="11.669" r="1"/>
      <circle cx="75.671" cy="9.203" r="1"/>
      <circle cx="83.677" cy="7.428" r="1"/>
      <circle cx="91.807" cy="6.358" r="1"/>
      <circle cx="100.000" cy="6.000" r="1"/>
      <circle cx="108.193" cy="6.358" r="1"/>
      <circle cx="116.323" cy="7.428" r="1"/>
      <circle cx="124.329" cy="9.203" r="1"/>
      <circle cx="132.150" cy="11.669" r="1"/>
      <circle cx="139.726" cy="14.807" r="1"/>
      <circle cx="147.000" cy="18.594" r="1"/>
      <circle cx="153.916" cy="23.000" r="1"/>
      <circle cx="160.422" cy="27.992" r="1"/>
      <circle cx="166.468" cy="33.532" r="1"/>
      <circle cx="172.008" cy="39.578" r="1"/>
      <circle cx="177.000" cy="46.084" r="1"/>
      <circle cx="181.406" cy="53.000" r="1"/>
      <circle cx="185.193" cy="60.274" r="1"/>
      <circle cx="188.331" cy="67.850" r="1"/>
      <circle cx="190.797" cy="75.671" r="1"/>
      <circle cx="192.572" cy="83.677" r="1"/>
      <circle cx="193.642" cy="91.807" r="1"/>
    </g>
    <g id="ring-07b-data-nodes" class="pyrus-ring" style="--pyrus-ring-duration: 22s; --pyrus-ring-direction: reverse;" fill="url(#pyrus-grad)">
      <rect x="98" y="3.5" width="4" height="5" transform="rotate(0 100 100)"/>
      <rect x="98" y="3.5" width="4" height="5" transform="rotate(20 100 100)"/>
      <rect x="98" y="3.5" width="4" height="5" transform="rotate(40 100 100)"/>
      <rect x="98" y="3.5" width="4" height="5" transform="rotate(60 100 100)"/>
      <rect x="98" y="3.5" width="4" height="5" transform="rotate(80 100 100)"/>
      <rect x="98" y="3.5" width="4" height="5" transform="rotate(100 100 100)"/>
      <rect x="98" y="3.5" width="4" height="5" transform="rotate(120 100 100)"/>
      <rect x="98" y="3.5" width="4" height="5" transform="rotate(140 100 100)"/>
      <rect x="98" y="3.5" width="4" height="5" transform="rotate(160 100 100)"/>
      <rect x="98" y="3.5" width="4" height="5" transform="rotate(180 100 100)"/>
      <rect x="98" y="3.5" width="4" height="5" transform="rotate(200 100 100)"/>
      <rect x="98" y="3.5" width="4" height="5" transform="rotate(220.00000000000003 100 100)"/>
      <rect x="98" y="3.5" width="4" height="5" transform="rotate(240 100 100)"/>
      <rect x="98" y="3.5" width="4" height="5" transform="rotate(260 100 100)"/>
      <rect x="98" y="3.5" width="4" height="5" transform="rotate(280 100 100)"/>
      <rect x="98" y="3.5" width="4" height="5" transform="rotate(300 100 100)"/>
      <rect x="98" y="3.5" width="4" height="5" transform="rotate(320 100 100)"/>
      <rect x="98" y="3.5" width="4" height="5" transform="rotate(340 100 100)"/>
    </g>
    <circle id="ring-06-outer-data-grid" class="pyrus-ring" style="--pyrus-ring-duration: 26s; --pyrus-ring-direction: reverse;" cx="100" cy="100" r="82" stroke="url(#pyrus-grad)" stroke-opacity="0.95" stroke-width="4" stroke-dasharray="10 6" stroke-linecap="round"/>
    <circle id="ring-05-execution-track" class="pyrus-ring" style="--pyrus-ring-duration: 34s; --pyrus-ring-direction: normal;" cx="100" cy="100" r="71" stroke="url(#pyrus-grad)" stroke-opacity="0.9" stroke-width="1.5" stroke-dasharray="1.5 3" stroke-linecap="round"/>
    <circle id="boundary-r62" cx="100" cy="100" r="62" stroke="url(#pyrus-grad)" stroke-opacity="0.9" stroke-width="1.1" stroke-dasharray="0.8 3" stroke-linecap="round"/>
    <g id="gauge-arc" stroke="url(#pyrus-grad)" stroke-width="2" stroke-linecap="round">
      <line x1="100" y1="32" x2="100" y2="45" transform="rotate(-60 100 100)"/>
      <line x1="100" y1="32" x2="100" y2="45" transform="rotate(-55 100 100)"/>
      <line x1="100" y1="32" x2="100" y2="45" transform="rotate(-50 100 100)"/>
      <line x1="100" y1="32" x2="100" y2="45" transform="rotate(-45 100 100)"/>
      <line x1="100" y1="32" x2="100" y2="45" transform="rotate(-40 100 100)"/>
      <line x1="100" y1="32" x2="100" y2="45" transform="rotate(-35 100 100)"/>
      <line x1="100" y1="32" x2="100" y2="45" transform="rotate(-30 100 100)"/>
      <line x1="100" y1="32" x2="100" y2="45" transform="rotate(-25 100 100)"/>
      <line x1="100" y1="32" x2="100" y2="45" transform="rotate(-20 100 100)"/>
      <line x1="100" y1="32" x2="100" y2="45" transform="rotate(-15 100 100)"/>
      <line x1="100" y1="32" x2="100" y2="45" transform="rotate(-10 100 100)"/>
      <line x1="100" y1="32" x2="100" y2="45" transform="rotate(-5 100 100)"/>
      <line x1="100" y1="32" x2="100" y2="45" transform="rotate(0 100 100)"/>
      <line x1="100" y1="32" x2="100" y2="45" transform="rotate(5 100 100)"/>
      <line x1="100" y1="32" x2="100" y2="45" transform="rotate(10 100 100)"/>
      <line x1="100" y1="32" x2="100" y2="45" transform="rotate(15 100 100)"/>
      <line x1="100" y1="32" x2="100" y2="45" transform="rotate(20 100 100)"/>
      <line x1="100" y1="32" x2="100" y2="45" transform="rotate(25 100 100)"/>
      <line x1="100" y1="32" x2="100" y2="45" transform="rotate(30 100 100)"/>
      <line x1="100" y1="32" x2="100" y2="45" transform="rotate(35 100 100)"/>
      <line x1="100" y1="32" x2="100" y2="45" transform="rotate(40 100 100)"/>
      <line x1="100" y1="32" x2="100" y2="45" transform="rotate(45 100 100)"/>
      <line x1="100" y1="32" x2="100" y2="45" transform="rotate(50 100 100)"/>
      <line x1="100" y1="32" x2="100" y2="45" transform="rotate(55 100 100)"/>
      <line x1="100" y1="32" x2="100" y2="45" transform="rotate(60 100 100)"/>
    </g>
    <circle id="ring-03-model-transition" class="pyrus-ring" style="--pyrus-ring-duration: 44s; --pyrus-ring-direction: reverse;" cx="100" cy="100" r="50" stroke="url(#pyrus-grad)" stroke-opacity="0.95" stroke-width="2.5" stroke-dasharray="6 4" stroke-linecap="round"/>
    <circle id="ring-01-inner-ticks-outer" class="pyrus-ring" style="--pyrus-ring-duration: 56s; --pyrus-ring-direction: normal;" cx="100" cy="100" r="40" stroke="url(#pyrus-grad)" stroke-opacity="0.85" stroke-width="1" stroke-dasharray="3 3" stroke-linecap="round"/>
    <circle id="boundary-r30" cx="100" cy="100" r="30" stroke="url(#pyrus-grad)" stroke-opacity="0.85" stroke-width="0.9" stroke-dasharray="0.6 2.4" stroke-linecap="round"/>
  </g>
</svg>
